<mxfile host="Electron" agent="Mozilla/5.0 (X11; Linux x86_64) AppleWebKit/537.36 (KHTML, like Gecko) draw.io/28.2.5 Chrome/138.0.7204.251 Electron/37.6.1 Safari/537.36" version="28.2.5">
  <diagram name="第 1 页" id="A2wYnKDMZFF023bxGnZ8">
    <mxGraphModel dx="599" dy="788" grid="1" gridSize="10" guides="1" tooltips="1" connect="1" arrows="1" fold="1" page="1" pageScale="1" pageWidth="827" pageHeight="1169" math="0" shadow="0">
      <root>
        <mxCell id="0" />
        <mxCell id="1" parent="0" />
        <mxCell id="lc5mf7nCTQjh2SExQ85K-13" value="" style="rounded=0;whiteSpace=wrap;html=1;" parent="1" vertex="1">
          <mxGeometry x="990" y="20" width="1340" height="430" as="geometry" />
        </mxCell>
        <mxCell id="1i7iyDztXm2SfSE6uJK3-1" value="«interface»&lt;br&gt;ClassMetadata" style="html=1;whiteSpace=wrap;fontSize=20;fontStyle=0;fillColor=#ffcc99;strokeColor=#36393d;" parent="1" vertex="1">
          <mxGeometry x="1300" y="60" width="220" height="50" as="geometry" />
        </mxCell>
        <mxCell id="1i7iyDztXm2SfSE6uJK3-2" value="SimpleAnnotationMetadata" style="html=1;whiteSpace=wrap;fontSize=20;fillColor=#ffcc99;strokeColor=#36393d;" parent="1" vertex="1">
          <mxGeometry x="1425" y="341" width="260" height="50" as="geometry" />
        </mxCell>
        <mxCell id="1i7iyDztXm2SfSE6uJK3-4" value="«interface»&lt;br&gt;AnnotatedTypeMetadata" style="html=1;whiteSpace=wrap;fontSize=20;fontStyle=0;fillColor=#ffcc99;strokeColor=#36393d;" parent="1" vertex="1">
          <mxGeometry x="1580" y="60" width="270" height="50" as="geometry" />
        </mxCell>
        <mxCell id="1i7iyDztXm2SfSE6uJK3-9" value="StandardMethodMetadata" style="html=1;whiteSpace=wrap;fontSize=20;verticalAlign=middle;align=center;fillColor=#ffcc99;strokeColor=#36393d;" parent="1" vertex="1">
          <mxGeometry x="1720" y="341" width="270" height="50" as="geometry" />
        </mxCell>
        <mxCell id="1i7iyDztXm2SfSE6uJK3-13" value="&lt;font style=&quot;color: rgb(255, 0, 0);&quot;&gt;StandardAnnotationMetadata&lt;/font&gt;" style="html=1;whiteSpace=wrap;fontSize=20;verticalAlign=middle;align=center;fillColor=#ffcc99;strokeColor=#36393d;" parent="1" vertex="1">
          <mxGeometry x="1055.5" y="340" width="290" height="51" as="geometry" />
        </mxCell>
        <mxCell id="1i7iyDztXm2SfSE6uJK3-22" value="SimpleMethodMetadata" style="html=1;whiteSpace=wrap;fontSize=20;verticalAlign=middle;fillColor=#ffcc99;strokeColor=#36393d;" parent="1" vertex="1">
          <mxGeometry x="2047" y="340" width="233" height="50" as="geometry" />
        </mxCell>
        <mxCell id="1i7iyDztXm2SfSE6uJK3-25" value="StandardClassMetadata" style="html=1;whiteSpace=wrap;fontSize=20;fillColor=#ffcc99;strokeColor=#36393d;" parent="1" vertex="1">
          <mxGeometry x="1073" y="190" width="255" height="50" as="geometry" />
        </mxCell>
        <mxCell id="lc5mf7nCTQjh2SExQ85K-1" value="«interface»&lt;br&gt;AnnotationMetadata" style="html=1;whiteSpace=wrap;fontSize=20;fontStyle=0;fillColor=#ffcc99;strokeColor=#36393d;" parent="1" vertex="1">
          <mxGeometry x="1420" y="190" width="270" height="50" as="geometry" />
        </mxCell>
        <mxCell id="lc5mf7nCTQjh2SExQ85K-2" value="Extends" style="endArrow=block;endSize=16;endFill=0;html=1;rounded=0;exitX=0.5;exitY=0;exitDx=0;exitDy=0;entryX=0.5;entryY=1;entryDx=0;entryDy=0;" parent="1" source="lc5mf7nCTQjh2SExQ85K-1" target="1i7iyDztXm2SfSE6uJK3-4" edge="1">
          <mxGeometry width="160" relative="1" as="geometry">
            <mxPoint x="1710" y="290" as="sourcePoint" />
            <mxPoint x="1870" y="290" as="targetPoint" />
          </mxGeometry>
        </mxCell>
        <mxCell id="lc5mf7nCTQjh2SExQ85K-3" value="Extends" style="endArrow=block;endSize=16;endFill=0;html=1;rounded=0;exitX=0.5;exitY=0;exitDx=0;exitDy=0;entryX=0.5;entryY=1;entryDx=0;entryDy=0;" parent="1" source="lc5mf7nCTQjh2SExQ85K-1" target="1i7iyDztXm2SfSE6uJK3-1" edge="1">
          <mxGeometry width="160" relative="1" as="geometry">
            <mxPoint x="1290" y="180" as="sourcePoint" />
            <mxPoint x="1450" y="180" as="targetPoint" />
          </mxGeometry>
        </mxCell>
        <mxCell id="lc5mf7nCTQjh2SExQ85K-4" value="" style="endArrow=block;dashed=1;endFill=0;endSize=12;html=1;rounded=0;exitX=0.5;exitY=0;exitDx=0;exitDy=0;entryX=0.5;entryY=1;entryDx=0;entryDy=0;" parent="1" source="1i7iyDztXm2SfSE6uJK3-2" target="lc5mf7nCTQjh2SExQ85K-1" edge="1">
          <mxGeometry width="160" relative="1" as="geometry">
            <mxPoint x="1290" y="460" as="sourcePoint" />
            <mxPoint x="1450" y="460" as="targetPoint" />
          </mxGeometry>
        </mxCell>
        <mxCell id="lc5mf7nCTQjh2SExQ85K-5" value="" style="endArrow=block;dashed=1;endFill=0;endSize=12;html=1;rounded=0;exitX=0.5;exitY=0;exitDx=0;exitDy=0;entryX=0.5;entryY=1;entryDx=0;entryDy=0;" parent="1" source="1i7iyDztXm2SfSE6uJK3-13" target="lc5mf7nCTQjh2SExQ85K-1" edge="1">
          <mxGeometry width="160" relative="1" as="geometry">
            <mxPoint x="1540" y="470" as="sourcePoint" />
            <mxPoint x="1700" y="470" as="targetPoint" />
          </mxGeometry>
        </mxCell>
        <mxCell id="lc5mf7nCTQjh2SExQ85K-6" value="" style="endArrow=block;dashed=1;endFill=0;endSize=12;html=1;rounded=0;exitX=0.5;exitY=0;exitDx=0;exitDy=0;entryX=0.5;entryY=1;entryDx=0;entryDy=0;" parent="1" source="1i7iyDztXm2SfSE6uJK3-25" target="1i7iyDztXm2SfSE6uJK3-1" edge="1">
          <mxGeometry width="160" relative="1" as="geometry">
            <mxPoint x="1140" y="130" as="sourcePoint" />
            <mxPoint x="1300" y="130" as="targetPoint" />
          </mxGeometry>
        </mxCell>
        <mxCell id="lc5mf7nCTQjh2SExQ85K-7" value="Extends" style="endArrow=block;endSize=16;endFill=0;html=1;rounded=0;exitX=0.5;exitY=0;exitDx=0;exitDy=0;entryX=0.5;entryY=1;entryDx=0;entryDy=0;" parent="1" source="1i7iyDztXm2SfSE6uJK3-13" target="1i7iyDztXm2SfSE6uJK3-25" edge="1">
          <mxGeometry width="160" relative="1" as="geometry">
            <mxPoint x="1360" y="400" as="sourcePoint" />
            <mxPoint x="1520" y="400" as="targetPoint" />
          </mxGeometry>
        </mxCell>
        <mxCell id="lc5mf7nCTQjh2SExQ85K-9" value="«interface»&lt;br&gt;MethodMetadata" style="html=1;whiteSpace=wrap;fontSize=20;fontStyle=0;fillColor=#ffcc99;strokeColor=#36393d;" parent="1" vertex="1">
          <mxGeometry x="1870" y="190" width="270" height="50" as="geometry" />
        </mxCell>
        <mxCell id="lc5mf7nCTQjh2SExQ85K-10" value="Extends" style="endArrow=block;endSize=16;endFill=0;html=1;rounded=0;exitX=0.5;exitY=0;exitDx=0;exitDy=0;entryX=0.5;entryY=1;entryDx=0;entryDy=0;" parent="1" source="lc5mf7nCTQjh2SExQ85K-9" target="1i7iyDztXm2SfSE6uJK3-4" edge="1">
          <mxGeometry width="160" relative="1" as="geometry">
            <mxPoint x="2120" y="140" as="sourcePoint" />
            <mxPoint x="2280" y="140" as="targetPoint" />
          </mxGeometry>
        </mxCell>
        <mxCell id="lc5mf7nCTQjh2SExQ85K-11" value="" style="endArrow=block;dashed=1;endFill=0;endSize=12;html=1;rounded=0;exitX=0.5;exitY=0;exitDx=0;exitDy=0;entryX=0.5;entryY=1;entryDx=0;entryDy=0;" parent="1" source="1i7iyDztXm2SfSE6uJK3-9" target="lc5mf7nCTQjh2SExQ85K-9" edge="1">
          <mxGeometry width="160" relative="1" as="geometry">
            <mxPoint x="1730" y="290" as="sourcePoint" />
            <mxPoint x="1890" y="290" as="targetPoint" />
          </mxGeometry>
        </mxCell>
        <mxCell id="lc5mf7nCTQjh2SExQ85K-12" value="" style="endArrow=block;dashed=1;endFill=0;endSize=12;html=1;rounded=0;exitX=0.5;exitY=0;exitDx=0;exitDy=0;entryX=0.5;entryY=1;entryDx=0;entryDy=0;" parent="1" source="1i7iyDztXm2SfSE6uJK3-22" target="lc5mf7nCTQjh2SExQ85K-9" edge="1">
          <mxGeometry width="160" relative="1" as="geometry">
            <mxPoint x="2240" y="290" as="sourcePoint" />
            <mxPoint x="2400" y="290" as="targetPoint" />
          </mxGeometry>
        </mxCell>
        <mxCell id="lc5mf7nCTQjh2SExQ85K-15" value="spring" style="shape=module;align=left;spacingLeft=20;align=center;verticalAlign=top;whiteSpace=wrap;html=1;fontSize=20;fillColor=#ffcc99;strokeColor=#36393d;" parent="1" vertex="1">
          <mxGeometry x="2150" y="40" width="160" height="50" as="geometry" />
        </mxCell>
      </root>
    </mxGraphModel>
  </diagram>
</mxfile>
